HIERARCHY
ROOT Hips
{
  OFFSET 202.592 103.946 101.174
  CHANNELS 6 Xposition Yposition Zposition Zrotation Xrotation Yrotation
  JOINT RightUpLeg
  {
    OFFSET -8.9458 -8.66707 0.101652
    CHANNELS 3 Zrotation Xrotation Yrotation
    JOINT RightLeg
    {
      OFFSET 0 -44.4227 1.3727
      CHANNELS 3 Zrotation Xrotation Yrotation
      JOINT RightFoot
      {
        OFFSET 0.253549 -42.0924 -1.46059
        CHANNELS 3 Zrotation Xrotation Yrotation
        JOINT RightToes
        {
          OFFSET 0.04 -4.41509 8.4991
          CHANNELS 3 Zrotation Xrotation Yrotation
          End Site
          {
            OFFSET -0.08 -0.137448 9.77979
          }
        }
      }
    }
  }
  JOINT Spine
  {
    OFFSET 0 11.8905 0
    CHANNELS 3 Zrotation Xrotation Yrotation
    JOINT Spine1
    {
      OFFSET 0 25.6574 0.127663
      CHANNELS 3 Zrotation Xrotation Yrotation
      JOINT HEad
      {
        OFFSET 0 8.73416 0.011341
        CHANNELS 3 Zrotation Xrotation Yrotation
        End Site
        {
          OFFSET -0.29 12.7742 2.51395
        }
      }
      JOINT LeftShoulder1
      {
        OFFSET 8.99 -0.362252 -0.22
        CHANNELS 3 Zrotation Xrotation Yrotation
        JOINT LeftArm
        {
          OFFSET 10.2827 -0.00338 0.322123
          CHANNELS 3 Zrotation Xrotation Yrotation
          JOINT LeftForeArm
          {
            OFFSET 32.7669 0.099144 -1.42434
            CHANNELS 3 Zrotation Xrotation Yrotation
            JOINT LeftHand
            {
              OFFSET 27.5643 0.085362 1.02216
              CHANNELS 3 Zrotation Xrotation Yrotation
              End Site
              {
                OFFSET 16.7443 -0.6 1.50291
              }
            }
          }
        }
      }
      JOINT RightShoulder
      {
        OFFSET -8.99 -0.362252 -0.22
        CHANNELS 3 Zrotation Xrotation Yrotation
        JOINT RightArm
        {
          OFFSET -10.2827 -0.00338 0.322123
          CHANNELS 3 Zrotation Xrotation Yrotation
          JOINT RightForeArm
          {
            OFFSET -32.8971 0.099144 -1.42434
            CHANNELS 3 Zrotation Xrotation Yrotation
            JOINT RightHand
            {
              OFFSET -27.4921 0.085362 1.02216
              CHANNELS 3 Zrotation Xrotation Yrotation
              End Site
              {
                OFFSET -16.6312 -0.6 1.50291
              }
            }
          }
        }
      }
    }
  }
  JOINT LeftUpLeg
  {
    OFFSET 8.9458 -8.66707 0.101652
    CHANNELS 3 Zrotation Xrotation Yrotation
    JOINT LeftLeg
    {
      OFFSET 0 -44.4227 1.3727
      CHANNELS 3 Zrotation Xrotation Yrotation
      JOINT LeftFoot
      {
        OFFSET -0.253549 -42.0924 -1.46059
        CHANNELS 3 Zrotation Xrotation Yrotation
        JOINT LeftToes
        {
          OFFSET -0.04 -4.41509 8.4991
          CHANNELS 3 Zrotation Xrotation Yrotation
          End Site
          {
            OFFSET 0.08 -0.047448 9.77979
          }
        }
      }
    }
  }
}
MOTION
Frames:	18
Frame Time:	0.0166667
0	104.178	0	0.77395	-0.256187	162.389	-0.807665	-0.985738	1.70716	-0.42967	9.71067	5.35572	2.94244	-9.23043	0.0194916	0.0462048	0.000533964	0.662642	-0.158125	-3.10837	-1.12688	-0.378381	-6.21022	-2.2676	6.99096	11.6963	42.0313	-3.98E-16	1.59E-15	0.00E+00	0.455596	-11.7615	-6.42966	-1.62518	8.10979	-5.37912	3.27509	9.63286	3.94175	-3.98E-16	1.59E-15	0.00E+00	6.96504	-13.2396	2.38831	-0.74406	18.2852	-3.82948	1.39173	10.8794	0.570733	-0.0278244	1.19229	11.4364	0.209531	8.53614	-1.34781	-5.16422	-21.8026	-1.38276	1.59E-14	3.02E-14	6.36E-15
-0.002	104.176	-0.018	0.768709	-0.275313	162.39	-0.814589	-0.994818	1.69828	-0.431418	9.70616	5.36432	2.94534	-9.23535	0.0162515	0.0462048	0.000533964	0.662642	-0.156812	-3.10966	-1.12685	-0.375776	-6.21283	-2.26748	6.98411	11.7016	42.0409	3.98E-16	1.59E-15	0.00E+00	0.466676	-11.7806	-6.43574	-1.60922	8.11645	-5.38871	3.28594	9.64261	3.94412	3.98E-16	1.59E-15	0.00E+00	6.95898	-13.2628	2.39847	-0.74586	18.2684	-3.83065	1.41092	10.8832	0.570418	-0.0288628	1.18312	11.4512	0.205918	8.53391	-1.36637	-5.16336	-21.8113	-1.38416	1.47E-14	3.18E-14	4.77E-15
-0.0055	104.175	-0.036	0.763049	-0.291182	162.391	-0.818464	-1.00091	1.70315	-0.437028	9.70138	5.36096	2.95074	-9.24493	-0.130997	0.0462048	0.000533964	0.662642	-0.155698	-3.11019	-1.12677	-0.373894	-6.21383	-2.2671	6.98885	11.7032	42.048	7.95E-16	-1.59E-15	3.18E-15	0.485332	-11.797	-6.42929	-1.59094	8.10625	-5.4045	3.31242	9.62778	3.94268	7.95E-16	-1.59E-15	3.18E-15	6.94139	-13.2705	2.41263	-0.742374	18.2255	-3.82541	1.40512	10.8792	0.572226	-0.033079	1.17638	11.4594	0.2029	8.53296	-1.37206	-5.15978	-21.8207	-1.38406	1.45E-14	3.02E-14	3.18E-15
-0.0102	104.173	-0.053	0.759101	-0.299775	162.39	-0.825103	-1.00221	1.71045	-0.437099	9.69511	5.35973	2.95189	-9.25443	-0.266792	0.0462048	0.000533964	0.662642	-0.154661	-3.11072	-1.12651	-0.371835	-6.2146	-2.26639	6.99732	11.6984	42.0501	-3.98E-16	3.18E-15	-3.18E-15	0.519361	-11.8118	-6.41905	-1.58683	8.10001	-5.41976	3.32112	9.62827	3.94002	-3.98E-16	3.18E-15	-3.18E-15	6.92562	-13.2702	2.4191	-0.744353	18.2023	-3.81044	1.37703	10.8733	0.575025	-0.0371468	1.17409	11.4573	0.198206	8.53231	-1.36918	-5.15364	-21.8272	-1.38303	1.45E-14	3.18E-14	3.18E-15
-0.0146	104.172	-0.07	0.754378	-0.309596	162.383	-0.83261	-1.00153	1.71752	-0.438683	9.69094	5.35936	2.95244	-9.26759	-0.470713	0.0462048	0.000533964	0.662642	-0.153669	-3.11123	-1.12612	-0.369663	-6.21516	-2.26541	7.00997	11.6781	42.0473	0.00E+00	0.00E+00	0.00E+00	0.556243	-11.8178	-6.42708	-1.58554	8.09807	-5.41283	3.3313	9.64082	3.93819	0.00E+00	0.00E+00	0.00E+00	6.89929	-13.2519	2.42685	-0.727271	18.2089	-3.80119	1.36196	10.8693	0.577768	-0.0443349	1.17362	11.4544	0.193797	8.53196	-1.36542	-5.14904	-21.8348	-1.38172	1.35E-14	3.02E-14	6.36E-15
-0.02	104.17	-0.085	0.749936	-0.318167	162.378	-0.83957	-1.00135	1.72431	-0.441192	9.69001	5.3596	2.95528	-9.27915	-0.610416	0.0462048	0.000533964	0.662642	-0.152694	-3.11171	-1.12562	-0.367456	-6.21551	-2.26423	7.02693	11.6575	42.0415	7.95E-16	0.00E+00	6.36E-15	0.585504	-11.8264	-6.4338	-1.5817	8.08306	-5.39717	3.33612	9.64588	3.93839	7.95E-16	0.00E+00	6.36E-15	6.87605	-13.2205	2.44097	-0.714157	18.2296	-3.80251	1.35501	10.8735	0.579415	-0.0541341	1.17428	11.4411	0.190501	8.53184	-1.3581	-5.14345	-21.8432	-1.38074	1.55E-14	3.02E-14	3.18E-15
-0.0258	104.168	-0.101	0.745035	-0.328509	162.371	-0.853431	-1.00299	1.72514	-0.444017	9.69061	5.36017	2.95392	-9.28773	-0.702687	0.0462048	0.000533964	0.662642	-0.151705	-3.11214	-1.12505	-0.365289	-6.21567	-2.26292	7.04102	11.6385	42.0296	7.95E-16	0.00E+00	6.36E-15	0.602458	-11.8349	-6.45489	-1.57333	8.05094	-5.38477	3.34217	9.63895	3.95112	7.95E-16	0.00E+00	6.36E-15	6.84489	-13.1916	2.45134	-0.706322	18.2281	-3.80759	1.35197	10.869	0.578612	-0.0633566	1.17526	11.432	0.187987	8.53185	-1.35206	-5.13952	-21.8561	-1.38076	1.39E-14	3.18E-14	1.59E-15
-0.0332	104.166	-0.116	0.741137	-0.335765	162.363	-0.860347	-1.00538	1.73389	-0.446615	9.69173	5.36079	2.95794	-9.28487	-0.25917	0.0462048	0.000533964	0.662642	-0.15067	-3.11251	-1.12444	-0.363238	-6.21564	-2.26154	7.0488	11.6281	42.0113	-3.98E-16	0.00E+00	3.18E-15	0.607502	-11.8515	-6.45718	-1.5645	8.03755	-5.38969	3.34116	9.63231	3.94925	-3.98E-16	0.00E+00	3.18E-15	6.80804	-13.1826	2.46259	-0.704996	18.2066	-3.81117	1.35028	10.8539	0.56607	-0.0737408	1.17578	11.4359	0.186981	8.53186	-1.35521	-5.13788	-21.8643	-1.38229	1.61E-14	3.18E-14	4.77E-15
-0.0421	104.165	-0.131	0.737745	-0.339677	162.356	-0.86309	-1.00817	1.74152	-0.448374	9.69235	5.36118	2.96006	-9.27904	-0.100156	0.0462048	0.000533964	0.662642	-0.149575	-3.11279	-1.12382	-0.361315	-6.21544	-2.26014	7.06672	11.6213	41.9893	-1.59E-15	-1.59E-15	6.36E-15	0.631376	-11.858	-6.44329	-1.56612	8.03839	-5.41406	3.33855	9.63801	3.93751	-1.59E-15	-1.59E-15	6.36E-15	6.78999	-13.1918	2.46889	-0.706687	18.1862	-3.81089	1.34163	10.8549	0.561364	-0.0831082	1.17515	11.4434	0.185212	8.53185	-1.35223	-5.1371	-21.8739	-1.38765	1.59E-14	3.02E-14	3.18E-15
-0.0518	104.163	-0.146	0.732851	-0.347506	162.351	-0.866765	-1.01152	1.74774	-0.449711	9.69148	5.36108	2.96324	-9.27804	-0.0157998	0.0462048	0.000533964	0.662642	-0.148858	-3.11296	-1.12323	-0.359728	-6.21509	-2.2588	7.09696	11.6222	41.9494	-8.83E-32	-1.59E-15	-3.18E-15	0.662505	-11.854	-6.43915	-1.56436	8.04528	-5.42691	3.33731	9.64918	3.92893	-8.83E-32	-1.59E-15	-3.18E-15	6.77796	-13.2187	2.45868	-0.711313	18.2042	-3.79744	1.33151	10.8686	0.561648	-0.0936587	1.1725	11.4518	0.183242	8.53172	-1.34691	-5.13789	-21.8818	-1.39602	1.57E-14	3.02E-14	6.36E-15
-0.0631	104.162	-0.162	0.726193	-0.361304	162.35	-0.877629	-1.01603	1.7466	-0.451658	9.68744	5.36075	2.9622	-9.29373	-0.467127	0.0462048	0.000533964	0.662642	-0.148425	-3.11302	-1.1227	-0.358626	-6.21458	-2.25758	7.11424	11.6293	41.9029	0.00E+00	0.00E+00	3.18E-15	0.67402	-11.8503	-6.45035	-1.54899	8.03884	-5.42381	3.34761	9.65045	3.93841	0.00E+00	0.00E+00	3.18E-15	6.77014	-13.2324	2.45449	-0.713845	18.2402	-3.78903	1.33626	10.8667	0.563701	-0.105312	1.16244	11.4564	0.181713	8.53135	-1.3436	-5.13769	-21.8888	-1.40114	1.57E-14	3.18E-14	3.18E-15
-0.0741	104.16	-0.179	0.718575	-0.379648	162.348	-0.88206	-1.02302	1.74277	-0.455557	9.68066	5.36007	2.96334	-9.29756	-0.503668	0.0462048	0.000533964	0.662642	-0.148207	-3.11293	-1.12226	-0.357858	-6.21394	-2.25654	7.11474	11.6448	41.8577	0.00E+00	0.00E+00	-3.18E-15	0.671501	-11.8591	-6.45157	-1.53505	8.02261	-5.41693	3.36995	9.65045	3.9455	0.00E+00	0.00E+00	-3.18E-15	6.75586	-13.2243	2.46479	-0.715132	18.2571	-3.78834	1.34551	10.8659	0.563445	-0.115538	1.15	11.4624	0.181139	8.53066	-1.34575	-5.13589	-21.8947	-1.40155	1.55E-14	3.50E-14	7.95E-15
-0.0837	104.158	-0.197	0.711902	-0.395839	162.344	-0.886911	-1.02836	1.74227	-0.459945	9.67481	5.3582	2.97461	-9.2991	-0.445705	0.0462048	0.000533964	0.662642	-0.148138	-3.11269	-1.12194	-0.357344	-6.21316	-2.25575	7.10498	11.6622	41.8074	7.95E-16	-1.59E-15	3.18E-15	0.67315	-11.87	-6.44647	-1.53846	8.01394	-5.415	3.36527	9.64957	3.94386	7.95E-16	-1.59E-15	3.18E-15	6.73915	-13.2243	2.47168	-0.717583	18.2539	-3.79039	1.34261	10.8659	0.557199	-0.123665	1.14436	11.4738	0.181933	8.52954	-1.35616	-5.13369	-21.8978	-1.40207	1.45E-14	3.50E-14	7.95E-15
-0.0924	104.155	-0.217	0.704151	-0.415026	162.342	-0.892785	-1.03745	1.7504	-0.461564	9.6681	5.35363	2.97972	-9.3001	-0.410065	0.0462048	0.000533964	0.662642	-0.148151	-3.11228	-1.12179	-0.357	-6.21227	-2.25527	7.08618	11.6844	41.7507	7.95E-16	0.00E+00	3.18E-15	0.678994	-11.8782	-6.42846	-1.54643	8.02769	-5.42866	3.32959	9.64834	3.94146	7.95E-16	0.00E+00	3.18E-15	6.72716	-13.2279	2.48164	-0.726709	18.2455	-3.79011	1.34854	10.8671	0.548322	-0.133881	1.13464	11.4946	0.183944	8.52791	-1.3733	-5.13124	-21.9032	-1.40231	1.63E-14	2.86E-14	4.77E-15
-0.1012	104.152	-0.238	0.696501	-0.433967	162.34	-0.900936	-1.04409	1.76248	-0.461204	9.65999	5.34335	2.96876	-9.30047	-0.458537	0.0462048	0.000533964	0.662642	-0.148179	-3.11168	-1.12182	-0.356747	-6.21127	-2.25516	7.0581	11.7038	41.6544	-3.98E-16	0.00E+00	6.36E-15	0.681551	-11.8837	-6.42371	-1.54836	8.0515	-5.43554	3.30181	9.64725	3.94555	-3.98E-16	0.00E+00	6.36E-15	6.71307	-13.2322	2.48311	-0.738308	18.247	-3.78381	1.35347	10.871	0.546898	-0.145069	1.12451	11.5092	0.18548	8.52573	-1.38556	-5.1297	-21.911	-1.40272	1.39E-14	3.18E-14	4.77E-15
-0.1102	104.149	-0.26	0.690307	-0.448851	162.338	-0.915014	-1.04916	1.77576	-0.460342	9.65385	5.33156	2.97082	-9.30041	-0.395736	0.0462048	0.000533964	0.662642	-0.148154	-3.11087	-1.12208	-0.356502	-6.21018	-2.25549	7.02218	11.7249	41.4956	0.00E+00	0.00E+00	0.00E+00	0.681328	-11.8808	-6.42563	-1.53754	8.05648	-5.44125	3.29915	9.64697	3.95138	0.00E+00	0.00E+00	0.00E+00	6.6944	-13.2341	2.48115	-0.73985	18.2802	-3.77035	1.35069	10.8844	0.548344	-0.157411	1.12079	11.5346	0.188068	8.52286	-1.4038	-5.13017	-21.9181	-1.40371	1.47E-14	3.18E-14	3.18E-15
-0.1176	104.147	-0.283	0.685692	-0.459767	162.337	-0.924858	-1.05162	1.78219	-0.460803	9.64658	5.33133	2.97434	-9.29981	-0.277907	0.0462048	0.000533964	0.662642	-0.148008	-3.10983	-1.1226	-0.356183	-6.209	-2.25632	6.95778	11.7501	41.2535	-3.53E-31	3.18E-15	6.36E-15	0.661458	-11.8872	-6.43067	-1.51424	8.04413	-5.45155	3.32955	9.64804	3.96285	-3.53E-31	3.18E-15	6.36E-15	6.67614	-13.2311	2.48089	-0.739259	18.322	-3.76509	1.32607	10.8842	0.547386	-0.167201	1.11957	11.5498	0.190519	8.51724	-1.42087	-5.13505	-21.9207	-1.40567	1.41E-14	3.02E-14	4.77E-15
-0.1232	104.145	-0.305	0.680378	-0.474334	162.336	-0.929673	-1.05301	1.77602	-0.461737	9.63984	5.33599	2.97622	-9.29846	-0.308537	0.0462048	0.000533964	0.662642	-0.147676	-3.10856	-1.1234	-0.355711	-6.20775	-2.25772	6.85938	11.7859	40.9012	0.00E+00	0.00E+00	6.36E-15	0.628755	-11.8986	-6.43553	-1.49397	8.05849	-5.47252	3.34534	9.65125	3.96434	0.00E+00	0.00E+00	6.36E-15	6.65669	-13.2216	2.48578	-0.740421	18.3322	-3.76829	1.31577	10.8716	0.539907	-0.174128	1.11938	11.5415	0.190526	8.51228	-1.42115	-5.14344	-21.9223	-1.40908	1.43E-14	3.02E-14	7.95E-15
